<svg width="60" height="60" viewBox="0 0 60 60" fill="none" xmlns="http://www.w3.org/2000/svg">
<path d="M9.375 7.5C8.87772 7.5 8.40081 7.69754 8.04918 8.04918C7.69754 8.40081 7.5 8.87772 7.5 9.375C7.5 9.87228 7.69754 10.3492 8.04918 10.7008C8.40081 11.0525 8.87772 11.25 9.375 11.25H10.2975C10.7046 11.2507 11.1005 11.3839 11.4252 11.6295C11.75 11.8751 11.9859 12.2197 12.0975 12.6112L18.045 33.4238C18.3814 34.5983 19.091 35.6313 20.0666 36.3668C21.0422 37.1022 22.2308 37.5 23.4525 37.5H40.5862C41.7107 37.5002 42.8093 37.1634 43.7405 36.533C44.6716 35.9027 45.3925 35.0078 45.81 33.9638L51.3375 20.1412C51.5647 19.5725 51.6492 18.9567 51.5835 18.3477C51.5178 17.7388 51.3039 17.1552 50.9606 16.648C50.6173 16.1408 50.1549 15.7253 49.614 15.4381C49.0731 15.1508 48.47 15.0004 47.8575 15H16.68L15.7012 11.58C15.3657 10.4054 14.6569 9.37195 13.682 8.63586C12.7071 7.89978 11.5191 7.50107 10.2975 7.5H9.375ZM24.375 52.5C25.1137 52.5 25.8451 52.3545 26.5276 52.0718C27.2101 51.7891 27.8301 51.3748 28.3525 50.8525C28.8748 50.3301 29.2891 49.7101 29.5718 49.0276C29.8545 48.3451 30 47.6137 30 46.875C30 46.1363 29.8545 45.4049 29.5718 44.7224C29.2891 44.0399 28.8748 43.4199 28.3525 42.8975C27.8301 42.3752 27.2101 41.9609 26.5276 41.6782C25.8451 41.3955 25.1137 41.25 24.375 41.25C22.8832 41.25 21.4524 41.8426 20.3975 42.8975C19.3426 43.9524 18.75 45.3832 18.75 46.875C18.75 48.3668 19.3426 49.7976 20.3975 50.8525C21.4524 51.9074 22.8832 52.5 24.375 52.5ZM39.375 52.5C40.1137 52.5 40.8451 52.3545 41.5276 52.0718C42.2101 51.7891 42.8301 51.3748 43.3525 50.8525C43.8748 50.3301 44.2891 49.7101 44.5718 49.0276C44.8545 48.3451 45 47.6137 45 46.875C45 46.1363 44.8545 45.4049 44.5718 44.7224C44.2891 44.0399 43.8748 43.4199 43.3525 42.8975C42.8301 42.3752 42.2101 41.9609 41.5276 41.6782C40.8451 41.3955 40.1137 41.25 39.375 41.25C37.8832 41.25 36.4524 41.8426 35.3975 42.8975C34.3426 43.9524 33.75 45.3832 33.75 46.875C33.75 48.3668 34.3426 49.7976 35.3975 50.8525C36.4524 51.9074 37.8832 52.5 39.375 52.5Z" fill="white"/>
</svg>
