<svg width="50" height="50" viewBox="0 0 50 50" fill="none" xmlns="http://www.w3.org/2000/svg">
<mask id="mask0_35_836" style="mask-type:luminance" maskUnits="userSpaceOnUse" x="0" y="0" width="50" height="50">
<path d="M0 0H50V50H0V0Z" fill="white"/>
</mask>
<g mask="url(#mask0_35_836)">
<path fill-rule="evenodd" clip-rule="evenodd" d="M38.7844 19.7812C40.6482 20.2428 42.3039 21.3153 43.4871 22.8275C44.6703 24.3398 45.3129 26.2048 45.3125 28.125V28.9062C45.3125 31.1855 44.4071 33.3713 42.7954 34.9829C41.1838 36.5946 38.998 37.5 36.7188 37.5H35.9375C33.7081 37.502 31.5654 36.6367 29.9627 35.087C28.36 33.5374 27.423 31.425 27.35 29.1969V29.1875H27.3438V28.125C27.3438 27.7146 27.3719 27.3125 27.4281 26.9188C27.4906 26.1021 27.5844 25.3 27.7094 24.5125C28.0389 22.4494 28.6258 20.4358 29.4562 18.5188C30.9452 15.0845 33.2674 12.0759 36.2125 9.76562L36.5187 9.52813C36.6482 9.42964 36.8061 9.3759 36.9687 9.375C37.55 9.375 37.925 10.0063 37.6563 10.5219C37.4213 10.97 37.1921 11.421 36.9687 11.875C36.4922 12.8524 36.0441 13.8435 35.625 14.8469C34.947 16.4544 34.3657 18.1011 33.8844 19.7781L34.0531 19.7375C34.6719 19.6007 35.3038 19.5316 35.9375 19.5312H36.7188C37.4333 19.5333 38.1219 19.6167 38.7844 19.7812ZM40.5 15.3906C43.2445 16.2057 45.6522 17.8859 47.3641 20.1807C49.076 22.4755 50.0006 25.262 50 28.125V28.9062C50 32.4287 48.6007 35.8068 46.11 38.2975C43.6193 40.7882 40.2412 42.1875 36.7188 42.1875H35.9375C33.7855 42.1879 31.6656 41.6653 29.7603 40.6648C27.855 39.6642 26.2213 38.2156 25 36.4437C23.7787 38.2156 22.145 39.6642 20.2397 40.6648C18.3344 41.6653 16.2145 42.1879 14.0625 42.1875H13.2812C9.80492 42.1882 6.46688 40.8259 3.98374 38.393C1.50061 35.9601 0.0703446 32.6506 0 29.175L0 28.125C0 27.5521 0.0364583 26.9865 0.109375 26.4281C0.75625 18.2406 4.35312 10.9094 11.0094 5.80625C11.9577 5.08078 13.1185 4.68764 14.3125 4.6875C18.5031 4.6875 21.0187 9.14063 19.15 12.7C18.8031 13.3594 18.3375 14.2875 17.8438 15.3875C20.3063 16.1187 22.4719 17.5438 24.1094 19.4406C25.8019 14.0139 29.1418 9.2486 33.6656 5.80625C34.614 5.08078 35.7747 4.68764 36.9687 4.6875C41.1594 4.6875 43.675 9.14063 41.8063 12.7C41.4594 13.3594 40.9938 14.2875 40.5 15.3875M16.125 19.7812C15.4489 19.6161 14.7554 19.5321 14.0594 19.5312H13.2781C12.5864 19.5321 11.8972 19.615 11.225 19.7781C11.7945 17.7876 12.5047 15.84 13.35 13.95C13.8612 12.789 14.4115 11.6457 15 10.5219C15.0629 10.403 15.0941 10.27 15.0906 10.1356C15.087 10.0011 15.0488 9.8699 14.9797 9.75456C14.9105 9.63923 14.8128 9.54369 14.6959 9.4772C14.579 9.4107 14.447 9.3755 14.3125 9.375C14.1499 9.3759 13.9919 9.42964 13.8625 9.52813C12.8261 10.3298 11.8544 11.2117 10.9563 12.1656C9.11167 14.1483 7.64016 16.4477 6.6125 18.9531C5.88081 20.7399 5.35858 22.6055 5.05625 24.5125C4.92708 25.3 4.83229 26.1021 4.77187 26.9188C4.71782 27.3186 4.68964 27.7215 4.6875 28.125V29.1844H4.69063V29.1969C4.76368 31.4256 5.70111 33.5384 7.30449 35.0881C8.90786 36.6378 11.0514 37.5028 13.2812 37.5H14.0656C16.3448 37.5 18.5307 36.5946 20.1423 34.9829C21.754 33.3713 22.6594 31.1855 22.6594 28.9062V28.125C22.6594 24.0938 19.8781 20.7062 16.1313 19.7812" fill="black"/>
</g>
</svg>
