<svg width="18" height="17" viewBox="0 0 18 17" fill="none" xmlns="http://www.w3.org/2000/svg">
<path d="M8.04913 0.927049C8.34848 0.00573801 9.65189 0.00574028 9.95124 0.927051L11.2453 4.90983C11.3792 5.32185 11.7632 5.60081 12.1964 5.60081H16.3841C17.3528 5.60081 17.7556 6.84043 16.9719 7.40983L13.584 9.87132C13.2335 10.126 13.0868 10.5773 13.2207 10.9894L14.5148 14.9721C14.8141 15.8934 13.7596 16.6596 12.9759 16.0902L9.58797 13.6287C9.23748 13.374 8.76289 13.374 8.4124 13.6287L5.02444 16.0902C4.24073 16.6596 3.18625 15.8934 3.4856 14.9721L4.77969 10.9894C4.91356 10.5773 4.7669 10.126 4.41641 9.87132L1.02846 7.40983C0.244744 6.84043 0.647522 5.60081 1.61624 5.60081H5.80399C6.23721 5.60081 6.62117 5.32185 6.75504 4.90983L8.04913 0.927049Z" fill="#F2B305"/>
</svg>
